<mxfile host="65bd71144e">
    <diagram id="e_HTib7txuDSt6OMVaiA" name="Page-1">
        <mxGraphModel dx="1179" dy="678" grid="1" gridSize="10" guides="1" tooltips="1" connect="1" arrows="1" fold="1" page="1" pageScale="1" pageWidth="827" pageHeight="1169" math="0" shadow="0">
            <root>
                <mxCell id="0"/>
                <mxCell id="1" parent="0"/>
                <mxCell id="59" value="" style="rounded=0;whiteSpace=wrap;html=1;fillColor=#dae8fc;strokeColor=#6c8ebf;" vertex="1" parent="1">
                    <mxGeometry x="5" y="180" width="1110" height="1080" as="geometry"/>
                </mxCell>
                <mxCell id="2" value="&lt;b&gt;sd&lt;/b&gt;&amp;nbsp;suppresion" style="shape=umlFrame;whiteSpace=wrap;html=1;width=120;height=30;boundedLbl=1;verticalAlign=middle;align=left;spacingLeft=5;" vertex="1" parent="1">
                    <mxGeometry x="40" y="200" width="1040" height="980" as="geometry"/>
                </mxCell>
                <mxCell id="42" value="ALT" style="shape=umlFrame;whiteSpace=wrap;html=1;width=90;height=30;boundedLbl=1;verticalAlign=middle;align=left;spacingLeft=5;" vertex="1" parent="1">
                    <mxGeometry x="80" y="890" width="940" height="230" as="geometry"/>
                </mxCell>
                <mxCell id="3" value="Actor" style="shape=umlActor;verticalLabelPosition=bottom;verticalAlign=top;html=1;" vertex="1" parent="1">
                    <mxGeometry x="180" y="270" width="30" height="60" as="geometry"/>
                </mxCell>
                <mxCell id="4" value="" style="html=1;points=[];perimeter=orthogonalPerimeter;" vertex="1" parent="1">
                    <mxGeometry x="190" y="350" width="10" height="820" as="geometry"/>
                </mxCell>
                <mxCell id="5" value="IHM" style="shape=umlLifeline;perimeter=lifelinePerimeter;whiteSpace=wrap;html=1;container=1;collapsible=0;recursiveResize=0;outlineConnect=0;" vertex="1" parent="1">
                    <mxGeometry x="380" y="290" width="100" height="870" as="geometry"/>
                </mxCell>
                <mxCell id="12" value="" style="html=1;points=[];perimeter=orthogonalPerimeter;" vertex="1" parent="5">
                    <mxGeometry x="45" y="310" width="10" height="40" as="geometry"/>
                </mxCell>
                <mxCell id="28" value="" style="html=1;points=[];perimeter=orthogonalPerimeter;" vertex="1" parent="5">
                    <mxGeometry x="45" y="400" width="10" height="40" as="geometry"/>
                </mxCell>
                <mxCell id="13" value="" style="html=1;verticalAlign=bottom;labelBackgroundColor=none;endArrow=block;endFill=1;exitX=0.982;exitY=0.499;exitDx=0;exitDy=0;exitPerimeter=0;" edge="1" parent="5" source="4">
                    <mxGeometry width="160" relative="1" as="geometry">
                        <mxPoint x="-115" y="472.5" as="sourcePoint"/>
                        <mxPoint x="45" y="472.5" as="targetPoint"/>
                        <Array as="points">
                            <mxPoint x="-35" y="472.5"/>
                        </Array>
                    </mxGeometry>
                </mxCell>
                <mxCell id="16" value="supprimer candidat" style="edgeLabel;html=1;align=center;verticalAlign=middle;resizable=0;points=[];" vertex="1" connectable="0" parent="13">
                    <mxGeometry x="0.1603" y="2" relative="1" as="geometry">
                        <mxPoint x="-13" y="-8" as="offset"/>
                    </mxGeometry>
                </mxCell>
                <mxCell id="33" value="" style="html=1;points=[];perimeter=orthogonalPerimeter;" vertex="1" parent="5">
                    <mxGeometry x="45" y="460" width="10" height="42.5" as="geometry"/>
                </mxCell>
                <mxCell id="36" value="" style="html=1;points=[];perimeter=orthogonalPerimeter;" vertex="1" parent="5">
                    <mxGeometry x="45" y="530" width="10" height="40" as="geometry"/>
                </mxCell>
                <mxCell id="56" value="" style="html=1;points=[];perimeter=orthogonalPerimeter;" vertex="1" parent="5">
                    <mxGeometry x="45" y="740" width="10" height="40" as="geometry"/>
                </mxCell>
                <mxCell id="6" value="controleur" style="shape=umlLifeline;perimeter=lifelinePerimeter;whiteSpace=wrap;html=1;container=1;collapsible=0;recursiveResize=0;outlineConnect=0;" vertex="1" parent="1">
                    <mxGeometry x="660" y="290" width="100" height="880" as="geometry"/>
                </mxCell>
                <mxCell id="19" value="" style="html=1;points=[];perimeter=orthogonalPerimeter;" vertex="1" parent="6">
                    <mxGeometry x="45" y="330" width="10" height="40" as="geometry"/>
                </mxCell>
                <mxCell id="26" value="" style="html=1;points=[];perimeter=orthogonalPerimeter;" vertex="1" parent="6">
                    <mxGeometry x="45" y="380" width="10" height="40" as="geometry"/>
                </mxCell>
                <mxCell id="38" value="" style="html=1;points=[];perimeter=orthogonalPerimeter;" vertex="1" parent="6">
                    <mxGeometry x="45" y="540" width="10" height="50" as="geometry"/>
                </mxCell>
                <mxCell id="53" value="" style="html=1;points=[];perimeter=orthogonalPerimeter;" vertex="1" parent="6">
                    <mxGeometry x="45" y="730" width="10" height="40" as="geometry"/>
                </mxCell>
                <mxCell id="7" value="Base de donnees" style="shape=umlLifeline;perimeter=lifelinePerimeter;whiteSpace=wrap;html=1;container=1;collapsible=0;recursiveResize=0;outlineConnect=0;" vertex="1" parent="1">
                    <mxGeometry x="920" y="290" width="100" height="890" as="geometry"/>
                </mxCell>
                <mxCell id="20" value="" style="html=1;verticalAlign=bottom;labelBackgroundColor=none;endArrow=block;endFill=1;" edge="1" parent="7" target="22">
                    <mxGeometry width="160" relative="1" as="geometry">
                        <mxPoint x="-200" y="350" as="sourcePoint"/>
                        <mxPoint x="-40" y="350" as="targetPoint"/>
                    </mxGeometry>
                </mxCell>
                <mxCell id="21" value="charger liste candidats" style="edgeLabel;html=1;align=center;verticalAlign=middle;resizable=0;points=[];" vertex="1" connectable="0" parent="20">
                    <mxGeometry x="0.1603" y="2" relative="1" as="geometry">
                        <mxPoint x="-13" y="-8" as="offset"/>
                    </mxGeometry>
                </mxCell>
                <mxCell id="22" value="" style="html=1;points=[];perimeter=orthogonalPerimeter;" vertex="1" parent="7">
                    <mxGeometry x="45" y="340" width="10" height="50" as="geometry"/>
                </mxCell>
                <mxCell id="23" style="edgeStyle=none;html=1;entryX=0.971;entryY=0.787;entryDx=0;entryDy=0;entryPerimeter=0;" edge="1" parent="7" source="22" target="22">
                    <mxGeometry relative="1" as="geometry"/>
                </mxCell>
                <mxCell id="39" value="Suppresion candidat" style="html=1;verticalAlign=bottom;labelBackgroundColor=none;endArrow=open;endFill=0;exitX=1.359;exitY=0.594;exitDx=0;exitDy=0;exitPerimeter=0;" edge="1" parent="7" target="40">
                    <mxGeometry width="160" relative="1" as="geometry">
                        <mxPoint x="-200" y="569.9999999999999" as="sourcePoint"/>
                        <mxPoint x="20" y="570" as="targetPoint"/>
                    </mxGeometry>
                </mxCell>
                <mxCell id="40" value="" style="html=1;points=[];perimeter=orthogonalPerimeter;" vertex="1" parent="7">
                    <mxGeometry x="45" y="560" width="10" height="40" as="geometry"/>
                </mxCell>
                <mxCell id="41" style="edgeStyle=none;html=1;entryX=1.224;entryY=0.788;entryDx=0;entryDy=0;entryPerimeter=0;" edge="1" parent="7" source="40" target="40">
                    <mxGeometry relative="1" as="geometry"/>
                </mxCell>
                <mxCell id="51" value="" style="html=1;points=[];perimeter=orthogonalPerimeter;" vertex="1" parent="7">
                    <mxGeometry x="45" y="730" width="10" height="40" as="geometry"/>
                </mxCell>
                <mxCell id="8" value="Ref Authentification" style="shape=umlFrame;whiteSpace=wrap;html=1;width=120;height=30;boundedLbl=1;verticalAlign=middle;align=left;spacingLeft=5;" vertex="1" parent="1">
                    <mxGeometry x="140" y="405" width="880" height="180" as="geometry"/>
                </mxCell>
                <mxCell id="10" value="" style="html=1;verticalAlign=bottom;labelBackgroundColor=none;endArrow=block;endFill=1;" edge="1" parent="1" target="12">
                    <mxGeometry width="160" relative="1" as="geometry">
                        <mxPoint x="200" y="620" as="sourcePoint"/>
                        <mxPoint x="360" y="620" as="targetPoint"/>
                    </mxGeometry>
                </mxCell>
                <mxCell id="11" value="Listes candidats" style="edgeLabel;html=1;align=center;verticalAlign=middle;resizable=0;points=[];" vertex="1" connectable="0" parent="10">
                    <mxGeometry x="0.42" y="1" relative="1" as="geometry">
                        <mxPoint x="-24" y="-9" as="offset"/>
                    </mxGeometry>
                </mxCell>
                <mxCell id="17" value="" style="html=1;verticalAlign=bottom;labelBackgroundColor=none;endArrow=block;endFill=1;" edge="1" parent="1" target="19">
                    <mxGeometry width="160" relative="1" as="geometry">
                        <mxPoint x="440" y="630" as="sourcePoint"/>
                        <mxPoint x="600" y="630" as="targetPoint"/>
                    </mxGeometry>
                </mxCell>
                <mxCell id="18" value="charger liste candidats" style="edgeLabel;html=1;align=center;verticalAlign=middle;resizable=0;points=[];" vertex="1" connectable="0" parent="17">
                    <mxGeometry x="0.1603" y="2" relative="1" as="geometry">
                        <mxPoint x="-13" y="-8" as="offset"/>
                    </mxGeometry>
                </mxCell>
                <mxCell id="24" value="Traitment&#10;requete" style="text;align=center;fontStyle=1;verticalAlign=middle;spacingLeft=3;spacingRight=3;strokeColor=none;rotatable=0;points=[[0,0.5],[1,0.5]];portConstraint=eastwest;" vertex="1" parent="1">
                    <mxGeometry x="1000" y="850" width="60" height="26" as="geometry"/>
                </mxCell>
                <mxCell id="25" value="Liste des candidats" style="html=1;verticalAlign=bottom;endArrow=open;dashed=1;endSize=8;exitX=0.029;exitY=0.908;exitDx=0;exitDy=0;exitPerimeter=0;" edge="1" parent="1" source="22" target="26">
                    <mxGeometry relative="1" as="geometry">
                        <mxPoint x="967" y="670" as="sourcePoint"/>
                        <mxPoint x="827" y="670" as="targetPoint"/>
                    </mxGeometry>
                </mxCell>
                <mxCell id="27" value="Liste des candidats" style="html=1;verticalAlign=bottom;endArrow=open;dashed=1;endSize=8;exitX=0.029;exitY=0.908;exitDx=0;exitDy=0;exitPerimeter=0;" edge="1" parent="1" target="28">
                    <mxGeometry relative="1" as="geometry">
                        <mxPoint x="705.1400000000004" y="699.9999999999999" as="sourcePoint"/>
                        <mxPoint x="454.85" y="699.9999999999999" as="targetPoint"/>
                    </mxGeometry>
                </mxCell>
                <mxCell id="31" value="Liste des candidats" style="html=1;verticalAlign=bottom;endArrow=open;dashed=1;endSize=8;exitX=-0.088;exitY=0.765;exitDx=0;exitDy=0;exitPerimeter=0;entryX=1.482;entryY=0.451;entryDx=0;entryDy=0;entryPerimeter=0;" edge="1" parent="1" source="28" target="4">
                    <mxGeometry relative="1" as="geometry">
                        <mxPoint x="715.0700000000003" y="750" as="sourcePoint"/>
                        <mxPoint x="444.93" y="750" as="targetPoint"/>
                    </mxGeometry>
                </mxCell>
                <mxCell id="34" value="&amp;nbsp;confirmer validation" style="html=1;verticalAlign=bottom;endArrow=open;dashed=1;endSize=8;exitX=-0.088;exitY=0.765;exitDx=0;exitDy=0;exitPerimeter=0;entryX=1.453;entryY=0.538;entryDx=0;entryDy=0;entryPerimeter=0;" edge="1" parent="1" target="4">
                    <mxGeometry relative="1" as="geometry">
                        <mxPoint x="429.2999999999999" y="790.7799999999999" as="sourcePoint"/>
                        <mxPoint x="209.99999999999994" y="789.9999999999999" as="targetPoint"/>
                    </mxGeometry>
                </mxCell>
                <mxCell id="35" value="Confirmer" style="html=1;verticalAlign=bottom;labelBackgroundColor=none;endArrow=open;endFill=0;exitX=1.359;exitY=0.594;exitDx=0;exitDy=0;exitPerimeter=0;" edge="1" parent="1" source="4" target="36">
                    <mxGeometry width="160" relative="1" as="geometry">
                        <mxPoint x="270" y="835" as="sourcePoint"/>
                        <mxPoint x="430" y="835" as="targetPoint"/>
                    </mxGeometry>
                </mxCell>
                <mxCell id="37" value="Suppresion candidat" style="html=1;verticalAlign=bottom;labelBackgroundColor=none;endArrow=open;endFill=0;exitX=1.359;exitY=0.594;exitDx=0;exitDy=0;exitPerimeter=0;" edge="1" parent="1" target="38">
                    <mxGeometry width="160" relative="1" as="geometry">
                        <mxPoint x="438.5899999999999" y="847.0799999999999" as="sourcePoint"/>
                        <mxPoint x="659.9999999999998" y="847.0799999999999" as="targetPoint"/>
                    </mxGeometry>
                </mxCell>
                <mxCell id="43" value="" style="html=1;points=[];perimeter=orthogonalPerimeter;" vertex="1" parent="1">
                    <mxGeometry x="965" y="910" width="10" height="40" as="geometry"/>
                </mxCell>
                <mxCell id="44" value="Echec suppresion" style="html=1;verticalAlign=bottom;endArrow=open;dashed=1;endSize=8;exitX=-0.088;exitY=0.765;exitDx=0;exitDy=0;exitPerimeter=0;" edge="1" parent="1">
                    <mxGeometry relative="1" as="geometry">
                        <mxPoint x="965" y="919.9999999999998" as="sourcePoint"/>
                        <mxPoint x="720" y="920" as="targetPoint"/>
                    </mxGeometry>
                </mxCell>
                <mxCell id="45" value="" style="html=1;points=[];perimeter=orthogonalPerimeter;" vertex="1" parent="1">
                    <mxGeometry x="705" y="905.19" width="10" height="44.81" as="geometry"/>
                </mxCell>
                <mxCell id="46" value="Echec suppresion" style="html=1;verticalAlign=bottom;endArrow=open;dashed=1;endSize=8;exitX=-0.088;exitY=0.765;exitDx=0;exitDy=0;exitPerimeter=0;" edge="1" parent="1" target="47">
                    <mxGeometry relative="1" as="geometry">
                        <mxPoint x="705" y="939.9999999999998" as="sourcePoint"/>
                        <mxPoint x="460" y="940" as="targetPoint"/>
                    </mxGeometry>
                </mxCell>
                <mxCell id="47" value="" style="html=1;points=[];perimeter=orthogonalPerimeter;" vertex="1" parent="1">
                    <mxGeometry x="425" y="930" width="10" height="40" as="geometry"/>
                </mxCell>
                <mxCell id="49" value="Message d'erreur" style="html=1;verticalAlign=bottom;endArrow=open;dashed=1;endSize=8;entryX=1.359;entryY=0.745;entryDx=0;entryDy=0;entryPerimeter=0;" edge="1" parent="1" target="4">
                    <mxGeometry relative="1" as="geometry">
                        <mxPoint x="425" y="960" as="sourcePoint"/>
                        <mxPoint x="200" y="980" as="targetPoint"/>
                    </mxGeometry>
                </mxCell>
                <mxCell id="50" value="" style="endArrow=none;dashed=1;html=1;exitX=0.001;exitY=0.471;exitDx=0;exitDy=0;exitPerimeter=0;entryX=1.004;entryY=0.483;entryDx=0;entryDy=0;entryPerimeter=0;" edge="1" parent="1" source="42" target="42">
                    <mxGeometry width="50" height="50" relative="1" as="geometry">
                        <mxPoint x="405" y="1050" as="sourcePoint"/>
                        <mxPoint x="455" y="1000" as="targetPoint"/>
                    </mxGeometry>
                </mxCell>
                <mxCell id="52" value="Suppresion Reussie" style="html=1;verticalAlign=bottom;endArrow=open;dashed=1;endSize=8;exitX=-0.088;exitY=0.765;exitDx=0;exitDy=0;exitPerimeter=0;" edge="1" parent="1" target="53">
                    <mxGeometry relative="1" as="geometry">
                        <mxPoint x="965" y="1029.9999999999998" as="sourcePoint"/>
                        <mxPoint x="720" y="1030" as="targetPoint"/>
                    </mxGeometry>
                </mxCell>
                <mxCell id="54" value="Suppresion Reussie" style="html=1;verticalAlign=bottom;endArrow=open;dashed=1;endSize=8;exitX=-0.088;exitY=0.765;exitDx=0;exitDy=0;exitPerimeter=0;" edge="1" parent="1">
                    <mxGeometry relative="1" as="geometry">
                        <mxPoint x="965" y="1029.9999999999998" as="sourcePoint"/>
                        <mxPoint x="715" y="1029.9999999999998" as="targetPoint"/>
                    </mxGeometry>
                </mxCell>
                <mxCell id="55" value="Suppresion Reussie" style="html=1;verticalAlign=bottom;endArrow=open;dashed=1;endSize=8;exitX=-0.088;exitY=0.765;exitDx=0;exitDy=0;exitPerimeter=0;" edge="1" parent="1" target="56">
                    <mxGeometry relative="1" as="geometry">
                        <mxPoint x="705" y="1039.9999999999998" as="sourcePoint"/>
                        <mxPoint x="455" y="1039.9999999999998" as="targetPoint"/>
                    </mxGeometry>
                </mxCell>
                <mxCell id="57" value="Candidat supprimé" style="html=1;verticalAlign=bottom;endArrow=open;dashed=1;endSize=8;exitX=-0.088;exitY=0.765;exitDx=0;exitDy=0;exitPerimeter=0;entryX=1.453;entryY=0.853;entryDx=0;entryDy=0;entryPerimeter=0;" edge="1" parent="1" target="4">
                    <mxGeometry relative="1" as="geometry">
                        <mxPoint x="425" y="1049.9999999999998" as="sourcePoint"/>
                        <mxPoint x="220" y="1050" as="targetPoint"/>
                    </mxGeometry>
                </mxCell>
            </root>
        </mxGraphModel>
    </diagram>
</mxfile>